<?xml version="1.0" encoding="iso-8859-1"?>
<!-- Uploaded to: SVG Repo, www.svgrepo.com, Generator: SVG Repo Mixer Tools -->
<svg fill="#000000" height="800px" width="800px" version="1.1" id="Capa_1" xmlns="http://www.w3.org/2000/svg" xmlns:xlink="http://www.w3.org/1999/xlink" 
	 viewBox="0 0 60 60" xml:space="preserve">
<g>
	<path d="M60,12c0-0.552-0.447-1-1-1h-3V7H3v4H1c-0.552,0-1,0.448-1,1v10c0,6.286,1.924,12.207,5.182,17.157
		c0.01,0.017,0.014,0.036,0.025,0.053c4.445,6.755,11.089,11.366,18.481,13.06c0.163,0.038,0.326,0.078,0.49,0.113
		c0.302,0.064,0.606,0.12,0.911,0.173c0.269,0.048,0.54,0.092,0.811,0.133c0.255,0.037,0.51,0.074,0.767,0.104
		c0.346,0.042,0.695,0.074,1.044,0.102c0.201,0.016,0.402,0.037,0.604,0.049C28.873,52.979,29.435,53,30,53
		c0.565,0,1.127-0.021,1.686-0.055c0.202-0.012,0.403-0.033,0.604-0.049c0.349-0.029,0.697-0.061,1.043-0.102
		c0.257-0.031,0.513-0.067,0.769-0.104c0.271-0.04,0.54-0.084,0.809-0.132c0.305-0.054,0.61-0.11,0.913-0.174
		c0.163-0.035,0.323-0.074,0.485-0.112c7.394-1.693,14.039-6.305,18.484-13.061c0.01-0.016,0.014-0.034,0.023-0.051
		C58.076,34.209,60,28.288,60,22V12z M58,13v8H40v-8h16H58z M22,13h4v8h-4V13z M28,13h4v8h-4V13z M34,13h4v8h-4V13z M5,9h49v2H40h-6
		h-2h-4h-2h-6H5V9z M2,13h1h17v8H2V13z M52.55,38.938c-0.214,0.302-0.432,0.6-0.655,0.892c-0.178,0.232-0.36,0.461-0.545,0.687
		c-0.107,0.132-0.216,0.262-0.325,0.392c-3.082,3.653-7.011,6.528-11.433,8.26C42.299,46.615,44,43.007,44,39
		c0-4.117-1.797-7.814-4.636-10.378c5.311,1.887,10.003,5.352,13.38,10.047C52.681,38.76,52.614,38.848,52.55,38.938z M42,39
		c0,6.617-5.383,12-12,12s-12-5.383-12-12s5.383-12,12-12S42,32.383,42,39z M16,39c0,4.006,1.701,7.615,4.407,10.17
		c-4.418-1.73-8.345-4.602-11.425-8.251c-0.114-0.136-0.228-0.273-0.341-0.412c-0.18-0.221-0.358-0.444-0.532-0.671
		c-0.232-0.304-0.459-0.613-0.681-0.928c-0.057-0.08-0.116-0.158-0.172-0.239c3.377-4.696,8.068-8.16,13.379-10.047
		C17.797,31.186,16,34.883,16,39z M53.89,36.872C48.226,29.415,39.41,25,30,25c-9.409,0-18.226,4.414-23.891,11.872
		C3.676,32.763,2.191,28.022,2.017,23H20h6h2h4h2h6h17.982C57.808,28.022,56.324,32.764,53.89,36.872z"/>
	<path d="M30,49c5.514,0,10-4.486,10-10s-4.486-10-10-10s-10,4.486-10,10S24.486,49,30,49z M30,31c4.411,0,8,3.589,8,8s-3.589,8-8,8
		s-8-3.589-8-8S25.589,31,30,31z"/>
	<path d="M33.29,41.29C33.11,41.48,33,41.74,33,42c0,0.26,0.11,0.52,0.29,0.71C33.48,42.89,33.74,43,34,43
		c0.26,0,0.52-0.11,0.71-0.29C34.89,42.52,35,42.26,35,42c0-0.26-0.11-0.52-0.29-0.71C34.33,40.92,33.67,40.92,33.29,41.29z"/>
	<path d="M29,35c0.26,0,0.52-0.11,0.71-0.29C29.89,34.52,30,34.26,30,34c0-0.26-0.11-0.52-0.29-0.71c-0.38-0.37-1.05-0.37-1.42,0
		C28.11,33.48,28,33.74,28,34c0,0.26,0.11,0.52,0.29,0.71C28.48,34.89,28.74,35,29,35z"/>
	<path d="M32,35c1.084,0,2,1.374,2,3c0,0.552,0.448,1,1,1s1-0.448,1-1c0-2.757-1.794-5-4-5c-0.552,0-1,0.448-1,1S31.448,35,32,35z"
		/>
</g>
</svg>